<?xml version="1.0" encoding="utf-8"?>
<!-- Generator: Adobe Illustrator 16.0.0, SVG Export Plug-In . SVG Version: 6.00 Build 0)  -->
<!DOCTYPE svg PUBLIC "-//W3C//DTD SVG 1.1//EN" "http://www.w3.org/Graphics/SVG/1.1/DTD/svg11.dtd">
<svg version="1.1" xmlns="http://www.w3.org/2000/svg" xmlnsXlink="http://www.w3.org/1999/xlink" x="0px" y="0px" width="409px"
	 height="409px" viewBox="0 0 409 409" enableBackground="new 0 0 409 409" xmlSpace="preserve">
	<rect x="37" y="40" fill="#2D2C2C" width="334" height="334"/>
	<path d="M409,409H0V0h409V409z M362,47H46v316h316V47z"/>
	<path fill="#E0E0E0" d="M299.688,204.938c0,52.743-42.757,95.5-95.5,95.5s-95.5-42.757-95.5-95.5s42.757-95.5,95.5-95.5
		S299.688,152.195,299.688,204.938z M204.188,148.062c-31.412,0-56.877,25.465-56.877,56.877c0,31.413,25.465,56.878,56.877,56.878
		c31.413,0,56.878-25.465,56.878-56.878C261.066,173.526,235.602,148.062,204.188,148.062z"/>
	<polygon fill="#ADADAD" points="94,39.532 113.535,79.113 157.215,85.46 125.607,116.27 133.069,159.774 94,139.234 
		54.931,159.774 62.393,116.27 30.785,85.46 74.465,79.113 	"/>
	<polygon fill="#ADADAD" points="209,10.532 228.535,50.113 272.215,56.46 240.607,87.27 248.068,130.774 209,110.234 
		169.931,130.774 177.393,87.27 145.785,56.46 189.465,50.113 	"/>
	<polygon fill="#ADADAD" points="325,49.532 344.535,89.113 388.215,95.46 356.607,126.27 364.068,169.774 325,149.234 
		285.932,169.774 293.393,126.27 261.785,95.46 305.465,89.113 	"/>
	<polygon fill="#ADADAD" points="94,223.531 113.535,263.113 157.215,269.461 125.607,300.27 133.068,343.773 94,323.234 
		54.932,343.773 62.393,300.27 30.785,269.461 74.465,263.113 	"/>
	<polygon fill="#ADADAD" points="205,263.531 224.535,303.113 268.215,309.461 236.607,340.27 244.068,383.773 205,363.234 
		165.932,383.773 173.393,340.27 141.785,309.461 185.465,303.113 	"/>
	<polygon fill="#ADADAD" points="316,240.531 335.535,280.113 379.215,286.461 347.607,317.27 355.068,360.773 316,340.234 
		276.932,360.773 284.393,317.27 252.785,286.461 296.465,280.113 	"/>
</svg>
